<?xml version="1.0" encoding="UTF-8" standalone="no"?>
<!DOCTYPE svg PUBLIC "-//W3C//DTD SVG 1.1//EN" "http://www.w3.org/Graphics/SVG/1.1/DTD/svg11.dtd">
<svg width="100%" height="100%" viewBox="0 0 1380 1380" version="1.1" xmlns="http://www.w3.org/2000/svg" xmlns:xlink="http://www.w3.org/1999/xlink" xml:space="preserve" xmlns:serif="http://www.serif.com/" style="fill-rule:evenodd;clip-rule:evenodd;stroke-linejoin:round;stroke-miterlimit:2;">
    <g transform="matrix(4.16667,0,0,4.16667,315.496,159.242)">
        <path d="M0,252.292L-75.684,0L-21.021,0L21.55,215.5L69.384,0L110.378,0L158.212,215.5L200.783,0L255.446,0L179.758,252.292L136.662,252.292L89.879,75.488L43.101,252.292L0,252.292Z" style="fill:rgb(81,204,65);fill-rule:nonzero;"/>
    </g>
    <g transform="matrix(4.16667,0,0,4.16667,1322,1223.23)">
        <path d="M0,-222.29C6.909,-222.29 12.506,-216.692 12.506,-209.784C12.506,-202.888 6.909,-197.29 0,-197.29C-6.896,-197.29 -12.494,-202.888 -12.494,-209.784C-12.494,-216.692 -6.896,-222.29 0,-222.29M-45.033,-174.9C-42.865,-175.744 -40.696,-177.156 -38.2,-177.156C-34.443,-177.156 -28.984,-175.542 -27.181,-171.937C-26.728,-171.029 -27.068,-171.483 -26.475,-170.361C-25.896,-169.239 -25.681,-169.113 -25.101,-168.571C-24.521,-168.029 -24.357,-167.487 -24.105,-166.768C-23.437,-164.902 -22.756,-162.456 -21.937,-160.691C-21.735,-160.263 -21.533,-159.985 -21.395,-159.771C-16.818,-163.629 -16.944,-166.239 -13.565,-170.525C-13.112,-171.105 -8.384,-176.829 -7.426,-177.762C-6.808,-178.367 -7.174,-178.909 -7.464,-179.716C-7.577,-180.056 -7.69,-180.182 -7.3,-180.762C-6.896,-181.342 -6.984,-180.762 -5.862,-181.115C-5.232,-181.317 -4.879,-182.199 -4.602,-182.83C-4.4,-183.296 -4.715,-185.036 -4.753,-185.767C-4.804,-186.712 -3.316,-186.927 -2.673,-185.074C-2.497,-184.595 -2.32,-184.053 -2.32,-184.053C-0.946,-185.427 -0.504,-186.221 -0.164,-188.1C0.025,-189.184 0.605,-189.839 1.235,-188.768C1.689,-187.986 1.765,-186.498 1.273,-185.376C1.059,-184.897 0.87,-184.809 1.815,-185.124C3.58,-185.704 4.513,-186.574 5.61,-187.078C8.396,-188.364 7.135,-185.565 6.114,-184.557C5.194,-183.662 5.207,-183.75 4.626,-182.842C3.278,-180.775 1.664,-178.619 -0.441,-177.333C-1.312,-176.803 -1.526,-177.27 -2.534,-176.564C-4.324,-173.311 -6.077,-163.755 -9.279,-160.099C-12.28,-156.67 -15.444,-154.514 -18.747,-150.845L-19.869,-149.597L-20.777,-149.194C-17.222,-144.453 -14.41,-138.54 -13.981,-135.767C-13.402,-131.922 -13.654,-133.763 -13.654,-130.674C-13.654,-127.585 -15.066,-125.757 -15.356,-123.374C-15.658,-121.004 -15.28,-121.332 -14.902,-120.714C-13.452,-118.306 -13.969,-115.835 -13.439,-113.666C-12.633,-110.3 -12.406,-110.906 -12.153,-107.035C-11.99,-104.489 -10.905,-105.825 -10.905,-102.661C-10.905,-98.967 -14.813,-99.811 -17.65,-100.152C-17.839,-99.257 -17.121,-96.849 -18.255,-93.331C-17.512,-93.117 -14.334,-91.718 -12.658,-87.393C-12.065,-85.893 -13.944,-82.804 -13.439,-81.48C-12.242,-78.266 -14.523,-78.644 -12.153,-74.383C-11.195,-72.668 -13.969,-73.034 -11.864,-70.928C-11.195,-70.26 -10.981,-67.55 -10.981,-67.096C-10.981,-66.869 -11.082,-66.793 -11.384,-66.629C-11.145,-65.722 -10.918,-64.637 -10.956,-63.78C-11.044,-62.28 -11.006,-59.191 -10.918,-57.275C-10.83,-55.358 -10.704,-54.148 -10.502,-52.888C-10.288,-51.639 -10.502,-50.895 -9.456,-48.979C-8.422,-47.05 -8.548,-48.475 -8.296,-45.891C-8.043,-43.306 -8.548,-43.432 -7.161,-41.049C-5.787,-38.679 -1.866,-29.211 -1.538,-27.459C-1.198,-25.706 -1.122,-25.202 -0.29,-23.79C0.555,-22.378 0.302,-22.958 0.882,-21.117C1.462,-19.289 1.134,-19.289 1.878,-18.785C2.105,-18.634 2.256,-18.495 2.382,-18.344C3.921,-18.735 4.74,-16.516 5.509,-15.595C6.883,-13.982 8.9,-14.461 10.766,-14.347C14.662,-14.108 13.893,-9.455 12.935,-6.707C11.548,-2.736 8.182,-3.72 5.383,-3.72C4.223,-3.72 3.883,-3.442 3.177,-2.622C1.21,-0.378 -3.064,0 -5.573,-1.463C-7.779,-2.724 -7.451,-5.61 -5.661,-9.935C-5.119,-11.259 -5.51,-11.422 -4.917,-11.851C-5.144,-12.292 -5.283,-12.62 -5.283,-12.62C-5.283,-12.62 -5.119,-13.705 -6.543,-15.28C-7.956,-16.869 -8.208,-17.701 -8.964,-18.873C-9.708,-20.033 -10.792,-21.786 -11.372,-22.87C-11.964,-23.954 -10.956,-22.706 -12.204,-24.458C-13.465,-26.21 -15.041,-26.627 -15.545,-28.379C-16.049,-30.131 -17.965,-32.716 -18.381,-34.216C-18.797,-35.716 -19.466,-37.305 -19.718,-38.881C-19.97,-40.469 -19.629,-40.558 -20.209,-41.881C-20.802,-43.218 -28.644,-55.724 -30.22,-57.728C-31.808,-59.733 -31.808,-61.322 -34.481,-64.574C-35.073,-65.293 -35.603,-66.226 -36.082,-67.26C-36.599,-67.487 -37.242,-67.776 -38.326,-68.243C-44.188,-61.876 -47.378,-53.14 -55.699,-44.592C-55.787,-44.504 -55.875,-44.415 -55.951,-44.327L-56.014,-44.403C-59.973,-40.532 -61.851,-42.386 -68.772,-47.769C-75.593,-53.064 -78.568,-56.064 -89.02,-60.452C-90.406,-61.044 -90.81,-60.994 -92.423,-61.233C-93.697,-59.393 -95.197,-59.267 -97.214,-58.586C-97.34,-58.536 -102.837,-54.917 -103.366,-54.514C-104.703,-53.505 -105.346,-52.421 -106.442,-51.173C-113.729,-42.915 -116.011,-60.855 -111.46,-64.839C-110.716,-65.495 -108.939,-65.999 -108.145,-65.961C-105.85,-65.835 -105.283,-70.071 -104.337,-71.382C-103.934,-71.937 -103.039,-72.908 -101.425,-74.357C-99.811,-75.82 -98.903,-75.971 -96.899,-75.265C-94.983,-74.572 -93.003,-72.013 -92.121,-72.151C-91.642,-72.227 -91.654,-72.315 -90.911,-71.798L-90.923,-71.471C-90.558,-71.458 -90.167,-71.483 -89.763,-71.534C-88.313,-71.672 -90.898,-69.983 -87.67,-70.31C-86.46,-70.436 -87.368,-69.844 -86.309,-69.277C-81.039,-66.491 -69.428,-65.772 -62.809,-61.599C-62.116,-64.385 -61.586,-67.398 -61.095,-70.02C-61.498,-69.894 -61.674,-69.996 -61.473,-70.386C-61.057,-71.218 -61.649,-71.723 -61.561,-73.475C-61.473,-75.454 -58.788,-77.875 -58.888,-83.889C-58.989,-89.247 -58.17,-91.503 -56.064,-94.239C-54.64,-96.067 -54.64,-94.983 -54.64,-97.315C-54.64,-100.341 -50.265,-97.239 -50.883,-101.829C-51.412,-105.623 -44.629,-100.807 -46.306,-105.825C-46.886,-107.577 -46.218,-107.237 -44.466,-108.41C-42.713,-109.582 -43.381,-109.405 -44.05,-110.578C-44.718,-111.75 -43.129,-111.574 -42.045,-113.25C-39.196,-117.638 -41.957,-121.118 -42.638,-125.757C-42.915,-127.648 -46.634,-134.292 -46.672,-134.469C-47.214,-136.624 -46.104,-138.477 -46.092,-138.516C-45.84,-139.348 -45.966,-139.019 -46.723,-140.848C-47.92,-143.785 -45.777,-144.819 -46.054,-145.399C-46.634,-146.647 -46.218,-146.231 -46.054,-147.151C-46.017,-147.328 -45.991,-147.466 -45.953,-147.58C-46.332,-148.425 -46.735,-149.345 -47.151,-150.303C-48.916,-147.416 -51.942,-145.336 -56.959,-146.735C-57.401,-146.861 -57.817,-146.975 -58.233,-147.063C-59.91,-147.025 -61.662,-147.29 -63.894,-146.508C-67.449,-145.273 -68.697,-143.81 -68.697,-143.81C-68.697,-143.81 -69.024,-144.604 -68.697,-145.802C-71.634,-143.772 -73.349,-142.159 -74.748,-138.843C-74.748,-138.843 -74.874,-142.474 -74.282,-145.802C-75.441,-143.457 -76.791,-140.407 -76.791,-140.407C-76.791,-140.407 -76.929,-140.659 -76.955,-143.394C-76.967,-145.109 -76.526,-146.685 -75.542,-148.299C-76.917,-147.038 -78.719,-145.185 -80.043,-143.066L-82.464,-139.184C-82.464,-139.184 -84.796,-152.106 -76.715,-158.889C-68.646,-165.671 -63.742,-162.065 -63.742,-162.065L-67.524,-164.638C-67.524,-164.638 -64.927,-165.621 -59.847,-162.998C-55.573,-160.78 -54.312,-155.611 -50.896,-158.145C-51.967,-160.187 -53.013,-161.952 -53.896,-163.024C-57.93,-167.903 -61.46,-170.815 -65.696,-175.089C-71.483,-180.951 -72.693,-186.99 -80.749,-191.629C-83.901,-193.445 -90.343,-194.668 -93.987,-195.31C-94.289,-195.374 -94.466,-196.181 -94.188,-196.508C-93.924,-196.824 -93.533,-196.874 -93.407,-196.899C-93.293,-196.924 -93.608,-197.202 -93.041,-197.366C-92.486,-197.542 -89.75,-197.908 -88.376,-197.756C-88.843,-197.983 -89.07,-198.122 -89.297,-198.311C-89.826,-198.765 -89.234,-199.345 -88.717,-199.408C-87.002,-199.584 -85.351,-197.555 -83.977,-197.29C-82.073,-196.95 -79.161,-196.193 -77.333,-195.588C-74.635,-194.68 -74.66,-192.865 -73.727,-192.323C-72.882,-191.831 -66.503,-186.296 -64.007,-184.771C-61.511,-183.258 -56.556,-179.4 -55.421,-178.253C-54.299,-177.093 -51.173,-172.479 -49.42,-170.487C-49.345,-170.399 -49.269,-170.298 -49.193,-170.21L-45.033,-174.9Z" style="fill:white;"/>
    </g>
    <g transform="matrix(4.16667,0,0,4.16667,279.607,971.435)">
        <path d="M0,-89.024C-0.002,-89.008 -0.008,-88.988 -0.012,-88.972C-2.327,-90.879 -5.399,-93.061 -8.828,-95.323C-7.484,-95.806 -6.132,-96.17 -5.104,-96.17C-2.042,-96.17 -0.425,-96.255 -0.425,-96.255C-0.425,-96.255 0.341,-90.811 0,-89.024M42.114,-88.088C42.995,-89.685 44.194,-91.783 45.048,-94.262C47.502,-91.581 50.302,-87.977 49.431,-86.301C48.422,-84.361 44.865,-79.097 40.697,-78.832C40.786,-79.291 40.838,-79.692 40.838,-80.005C40.838,-82.813 40.753,-85.621 42.114,-88.088M45.597,-118.76C47.799,-118.189 50.096,-117.691 51.675,-117.646C51.366,-117.086 50.99,-116.56 50.529,-116.096L50.517,-116.087C49.702,-116.931 48.835,-117.491 47.899,-117.61L45.602,-117.525C45.602,-117.525 45.558,-118.078 45.597,-118.76M46.049,-120.694C47.849,-120.125 50.365,-119.506 52.369,-119.272C52.254,-118.913 52.119,-118.558 51.962,-118.214C50.38,-118.197 47.742,-118.795 45.651,-119.34C45.715,-119.83 45.834,-120.322 46.049,-120.694M47.788,-123.59C49.02,-123.455 50.668,-123.312 52.109,-123.312C52.409,-123.312 52.697,-123.319 52.974,-123.333C52.957,-122.263 52.844,-121.037 52.53,-119.834C50.629,-120.044 48.21,-120.627 46.426,-121.179C47.098,-121.957 47.216,-122.861 47.788,-123.59M49.346,-126.458C49.312,-126.528 49.28,-126.593 49.248,-126.661C52.151,-126.331 54.513,-125.274 54.815,-124.544C54.859,-124.439 54.843,-124.367 54.757,-124.28C54.21,-123.734 51.118,-123.845 48.395,-124.11C49.229,-124.549 50.286,-124.506 49.346,-126.458M53.67,-119.755C53.49,-119.758 53.301,-119.767 53.104,-119.781C53.378,-120.861 53.528,-122.063 53.545,-123.374C54.098,-123.43 54.554,-123.528 54.869,-123.681C54.838,-122.518 54.411,-121.11 53.67,-119.755M52.729,-118.298C52.691,-118.289 52.648,-118.282 52.607,-118.274C52.732,-118.575 52.846,-118.888 52.946,-119.215C53.079,-119.204 53.212,-119.193 53.338,-119.187C53.151,-118.884 52.947,-118.587 52.729,-118.298M65.17,52.377C62.739,52.427 63.213,51.441 63.213,51.441C63.213,51.441 63.383,42.338 62.533,37.403C61.682,32.469 61.086,13.836 61.767,9.242C62.448,4.648 61.597,-2.329 60.491,-5.987C59.385,-9.645 58.62,-24.364 55.897,-27.086C53.174,-29.809 53.94,-32.617 52.919,-36.445C51.898,-40.274 41.688,-63.84 38.541,-64.691C35.393,-65.542 36.839,-67.669 36.839,-67.669C36.839,-67.669 36.918,-67.857 37.05,-68.179C41.937,-68.459 51.237,-69.475 53.43,-71.668C56.067,-74.305 64.66,-75.922 64.66,-80.431C64.66,-84.94 61.852,-97.361 58.704,-101.445C56.287,-104.581 53.969,-112.077 50.905,-115.659C53.881,-117.858 55.749,-121.967 55.413,-124.455L55.408,-124.454C55.407,-124.556 55.392,-124.66 55.348,-124.765C54.886,-125.881 51.945,-126.978 48.949,-127.267C48.098,-128.975 47.644,-129.747 47.644,-130.712C47.644,-131.818 50.877,-131.563 52.153,-131.563C53.429,-131.563 55.046,-132.159 55.046,-133.18C55.046,-134.2 50.537,-134.626 50.537,-134.626C50.537,-134.626 49.686,-149.26 35.223,-149.26C30.374,-149.26 21.355,-143.56 20.164,-136.243C18.973,-128.926 21.95,-130.968 21.95,-130.968C21.95,-130.968 22.801,-127.479 21.44,-126.118C20.079,-124.757 19.057,-122.715 15.825,-122.715C12.592,-122.715 9.358,-119.397 5.956,-119.397C2.552,-119.397 -0.51,-117.951 -3.233,-115.228C-5.956,-112.506 -12.506,-111.74 -14.974,-109.273C-16.579,-107.667 -19.407,-105.628 -21.892,-103.416C-24.84,-105.153 -27.702,-106.791 -30.263,-108.225C-41.076,-114.28 -54.629,-122.083 -58.089,-121.354C-61.55,-120.625 -63.568,-114.28 -62.415,-111.829C-61.262,-109.378 -42.662,-100.583 -34.876,-95.825C-28.585,-91.981 -11,-81.924 -4.479,-78.205C-4.977,-77.213 -5.387,-76.49 -5.615,-76.262C-6.593,-75.283 -3.829,-72.944 -5.104,-69.626C-6.381,-66.308 -6.296,-64.607 -6.636,-62.904C-6.977,-61.203 -8.508,-58.991 -8.508,-55.418C-8.508,-51.844 -9.87,-43.336 -9.529,-37.466C-9.188,-31.596 -6.806,-20.28 -7.998,-16.452C-9.188,-12.623 -12.421,-5.392 -14.038,2.01C-15.655,9.413 -16.165,17.24 -17.271,21.664C-18.377,26.088 -22.801,37.743 -22.801,40.806C-22.801,42.236 -21.485,43.48 -19.33,44.478C-19.743,46.113 -18.707,47.407 -18.033,48.081C-17.09,49.024 -16.817,51.282 -17.717,53.383C-18.618,55.484 -17.467,56.934 -15.817,58.585C-14.166,60.236 -7.813,58.585 -5.712,58.585C-3.611,58.585 -3.011,58.185 -3.512,54.884C-3.881,52.443 -4.523,50.11 -4.833,47.201C-1.182,47.252 -0.17,46.096 -0.17,41.232C-0.17,34.766 3.573,24.216 5.19,15.283C6.807,6.35 9.529,2.521 10.38,-0.882C11.23,-4.286 9.869,-7.604 12.847,-13.304C15.825,-19.004 12.422,-24.024 12.932,-27.171C13.442,-30.319 15.484,-35.424 17.441,-35.424C19.398,-35.424 24.162,-20.195 33.351,-11.006C42.54,-1.818 39.259,0.073 38.796,5.754C38.2,13.071 38.881,16.814 40.157,21.238C41.434,25.663 42.795,36.808 42.795,39.36C42.795,41.913 42.114,49.059 41.178,50.761C40.242,52.462 39.136,57.226 43.73,57.737C48.325,58.247 69.85,57.737 69.85,57.737C69.85,57.737 70.546,52.266 65.17,52.377" style="fill:white;fill-rule:nonzero;"/>
    </g>
</svg>
