<?xml version="1.0" encoding="UTF-8" standalone="no"?>
<!DOCTYPE svg PUBLIC "-//W3C//DTD SVG 1.1//EN" "http://www.w3.org/Graphics/SVG/1.1/DTD/svg11.dtd">
<svg width="100%" height="100%" viewBox="0 0 3034 2157" version="1.1" xmlns="http://www.w3.org/2000/svg" xmlns:xlink="http://www.w3.org/1999/xlink" xml:space="preserve" xmlns:serif="http://www.serif.com/" style="fill-rule:evenodd;clip-rule:evenodd;stroke-linejoin:round;stroke-miterlimit:2;">
    <g transform="matrix(4.16667,0,0,4.16667,315.35,131.405)">
        <path d="M0,252.292L-75.684,0L-21.021,0L21.55,215.5L69.384,0L110.378,0L158.212,215.5L200.783,0L255.446,0L179.758,252.292L136.662,252.292L89.879,75.488L43.101,252.292L0,252.292Z" style="fill:rgb(69,162,218);fill-rule:nonzero;"/>
    </g>
    <g transform="matrix(4.16667,0,0,4.16667,1668.7,876.017)">
        <path d="M0,-31.537L70.956,-31.537C70.956,-62.284 55.317,-78.841 26.279,-78.841C-4.468,-78.841 -21.024,-56.765 -21.024,-15.768C-21.024,-13.327 -20.95,-10.956 -20.804,-8.656L0,-31.537ZM34.164,44.679C52.002,44.679 69.547,40.984 84.095,30.666L84.095,69.541C67.499,74.353 51.445,76.212 34.164,76.212C-24.177,76.212 -63.075,39.421 -63.075,-15.768C-63.075,-70.957 -27.334,-107.749 26.279,-107.749C75.159,-107.749 107.747,-76.843 107.747,-30.486L107.747,-18.395C107.747,-8.148 101.968,-2.629 91.98,-2.629L-20.226,-2.629C-16.239,28.219 2.521,44.679 34.164,44.679" style="fill:rgb(69,162,218);fill-rule:nonzero;"/>
    </g>
    <g transform="matrix(4.16667,0,0,4.16667,2461.44,1187)">
        <path d="M0,-284.88L0,-49.408C0,-28.38 1.576,0 1.576,0L-39.418,-2.102L-42.05,-48.355L-42.05,-284.88L0,-284.88Z" style="fill:rgb(69,162,218);fill-rule:nonzero;"/>
    </g>
    <g transform="matrix(4.16667,0,0,4.16667,2855.62,1187)">
        <path d="M0,-284.88L0,-49.408C0,-28.38 1.576,0 1.576,0L-39.419,-2.102L-42.05,-48.355L-42.05,-284.88L0,-284.88Z" style="fill:rgb(69,162,218);fill-rule:nonzero;"/>
    </g>
    <g transform="matrix(3.03475,0,0,3.03475,605.877,434.121)">
        <g transform="matrix(1,0,0,1,62.1548,388.331)">
            <path d="M0,-53.536C0,-70.621 9.063,-79.823 25.894,-79.823C32.122,-79.823 36.782,-79.217 42.832,-77.74L42.832,-63.923C37.442,-67.746 32.501,-69.114 25.894,-69.114C19.187,-69.114 15.575,-63.661 15.575,-53.536L15.575,-39.908L38.938,-39.908L38.938,-29.199L15.575,-29.199L15.575,26.287L0,26.287L0,-53.536Z" style="fill:rgb(29,29,27);fill-rule:nonzero;"/>
        </g>
        <g transform="matrix(1,0,0,1,142.371,359.132)">
            <path d="M0,44.778C10.748,44.778 17.912,35.821 17.912,22.387C17.912,8.954 10.748,-0 0,-0C-10.746,-0 -17.912,8.954 -17.912,22.387C-17.912,35.821 -10.746,44.778 0,44.778M0,-11.682C20.444,-11.682 34.072,1.946 34.072,22.387C34.072,42.831 20.444,56.46 0,56.46C-20.442,56.46 -34.071,42.831 -34.071,22.387C-34.071,1.946 -20.442,-11.682 0,-11.682" style="fill:rgb(29,29,27);fill-rule:nonzero;"/>
        </g>
        <g transform="matrix(1,0,0,1,205.65,415.592)">
            <path d="M0,-67.169L0,-23.364C0,-16.354 5.453,-11.682 13.631,-11.682C25.989,-11.682 36.019,-24.329 36.019,-39.912L36.019,-67.169L51.597,-67.169L51.597,-0.974L37,-0.974L36.133,-16.471C30.858,-6.49 22.305,0 12.655,0C-4.282,0 -15.575,-8.178 -15.575,-20.444L-15.575,-67.169L0,-67.169Z" style="fill:rgb(29,29,27);fill-rule:nonzero;"/>
        </g>
        <g transform="matrix(1,0,0,1,276.721,413.645)">
            <path d="M0,-65.222L14.593,-65.222L15.461,-49.725C20.736,-59.704 29.29,-66.195 38.938,-66.195C55.876,-66.195 67.168,-58.02 67.168,-45.754L67.168,0.973L51.594,0.973L51.594,-42.834C51.594,-49.841 46.141,-54.513 37.965,-54.513C25.605,-54.513 15.575,-41.867 15.575,-26.284L15.575,0.973L0,0.973L0,-65.222Z" style="fill:rgb(29,29,27);fill-rule:nonzero;"/>
        </g>
        <g transform="matrix(1,0,0,1,390.425,321.166)">
            <path d="M0,82.744C10.319,82.744 18.692,71.841 18.692,58.407L18.692,38.938L0,38.938C-10.046,38.938 -16.743,47.504 -16.743,60.353C-16.743,73.787 -10.046,82.744 0,82.744M-3.114,27.257L10.514,27.257L18.692,38.408L18.692,-11.682L34.268,-11.682L34.268,75.542C34.268,83.328 34.852,93.842 34.852,93.842L20.639,93.063L19.846,78.47C14.88,88.091 6.446,94.426 -3.114,94.426C-20.989,94.426 -32.904,80.797 -32.904,60.353C-32.904,40.496 -20.989,27.257 -3.114,27.257" style="fill:rgb(29,29,27);fill-rule:nonzero;"/>
        </g>
        <g transform="matrix(1,0,0,1,472.204,360.105)">
            <path d="M0,43.805C10.316,43.805 18.691,33.29 18.691,20.441L18.691,-0.001L0,-0.001C-10.047,-0.001 -16.743,8.565 -16.743,21.414C-16.743,34.848 -10.047,43.805 0,43.805M-3.115,-11.682L10.903,-11.682L18.691,-0.779L20.644,-11.682L34.267,-11.682L34.267,36.603C34.267,44.389 34.851,54.903 34.851,54.903L20.639,54.124L19.865,39.92C14.904,49.305 6.459,55.487 -3.115,55.487C-20.989,55.487 -32.905,41.858 -32.905,21.414C-32.905,1.557 -20.989,-11.682 -3.115,-11.682" style="fill:rgb(29,29,27);fill-rule:nonzero;"/>
        </g>
        <g transform="matrix(1,0,0,1,541.13,415.592)">
            <path d="M0,-90.532L0,-67.169L25.311,-67.169L25.311,-56.46L0,-56.46L0,-26.283C0,-16.159 3.612,-10.709 10.319,-10.709C16.927,-10.709 21.868,-12.077 27.257,-15.9L27.257,-2.083C21.209,-0.603 16.546,0 10.319,0C-6.513,0 -15.575,-9.199 -15.575,-26.283L-15.575,-84.693L0,-90.532Z" style="fill:rgb(29,29,27);fill-rule:nonzero;"/>
        </g>
        <g transform="matrix(1,0,0,1,599.542,380.936)">
            <path d="M0,-32.513L0,15.772C0,23.558 0.584,34.072 0.584,34.072L-14.602,33.294L-15.575,16.161L-15.575,-32.513L0,-32.513ZM-15.575,-64.444C-15.575,-66.371 -15.36,-66.585 -13.434,-66.585L0,-66.585L0,-55.098C0,-53.171 -0.214,-52.956 -2.141,-52.956L-15.575,-52.956L-15.575,-64.444Z" style="fill:rgb(29,29,27);fill-rule:nonzero;"/>
        </g>
        <g transform="matrix(1,0,0,1,648.216,359.132)">
            <path d="M0,44.778C10.748,44.778 17.914,35.821 17.914,22.387C17.914,8.954 10.748,-0 0,-0C-10.747,-0 -17.91,8.954 -17.91,22.387C-17.91,35.821 -10.747,44.778 0,44.778M0,-11.682C20.444,-11.682 34.072,1.946 34.072,22.387C34.072,42.831 20.444,56.46 0,56.46C-20.443,56.46 -34.072,42.831 -34.072,22.387C-34.072,1.946 -20.443,-11.682 0,-11.682" style="fill:rgb(29,29,27);fill-rule:nonzero;"/>
        </g>
        <g transform="matrix(1,0,0,1,696.895,413.645)">
            <path d="M0,-65.222L14.594,-65.222L15.461,-49.725C20.736,-59.704 29.29,-66.195 38.938,-66.195C55.876,-66.195 67.169,-58.02 67.169,-45.754L67.169,0.973L51.594,0.973L51.594,-42.834C51.594,-49.841 46.141,-54.513 37.966,-54.513C25.605,-54.513 15.575,-41.867 15.575,-26.284L15.575,0.973L0,0.973L0,-65.222Z" style="fill:rgb(29,29,27);fill-rule:nonzero;"/>
        </g>
    </g>
    <g transform="matrix(1.01204,0,0,1.13255,-57.9976,1365.95)">
        <g transform="matrix(1,0,0,1,137.953,40.2499)">
            <path d="M0,252.006L-75.599,0L-20.997,0L21.526,215.256L69.305,0L110.253,0L158.033,215.256L200.555,0L255.157,0L179.554,252.006L136.507,252.006L89.777,75.402L43.052,252.006L0,252.006Z" style="fill:rgb(29,29,27);fill-rule:nonzero;"/>
        </g>
        <g transform="matrix(1,0,0,1,462.39,218.754)">
            <path d="M0,-31.502L70.875,-31.502C70.875,-62.214 55.254,-78.752 26.249,-78.752C-4.464,-78.752 -21.002,-56.701 -21.002,-15.751C-21.002,-13.313 -20.927,-10.944 -20.781,-8.647L0,-31.502ZM34.125,44.628C51.942,44.628 69.468,40.937 83.999,30.63L83.999,69.461C67.422,74.269 51.387,76.125 34.125,76.125C-24.15,76.125 -63.003,39.375 -63.003,-15.751C-63.003,-70.878 -27.304,-107.627 26.249,-107.627C75.073,-107.627 107.625,-76.756 107.625,-30.452L107.625,-18.375C107.625,-8.139 101.852,-2.627 91.876,-2.627L-20.203,-2.627C-16.221,28.187 2.518,44.628 34.125,44.628" style="fill:rgb(29,29,27);fill-rule:nonzero;"/>
        </g>
        <g transform="matrix(1,0,0,1,652.431,293.306)">
            <path d="M0,-284.558L0,-49.352C0,-28.348 1.574,0 1.574,0L-39.373,-2.099L-42.002,-48.3L-42.002,-284.558L0,-284.558Z" style="fill:rgb(29,29,27);fill-rule:nonzero;"/>
        </g>
        <g transform="matrix(1,0,0,1,746.927,293.306)">
            <path d="M0,-284.558L0,-49.352C0,-28.348 1.574,0 1.574,0L-39.373,-2.099L-42.002,-48.3L-42.002,-284.558L0,-284.558Z" style="fill:rgb(29,29,27);fill-rule:nonzero;"/>
        </g>
    </g>
    <g transform="matrix(-2.41214,-3.39745,-3.39745,2.41214,2441.28,135.742)">
        <path d="M-9.944,1.903L3.542,1.903L3.723,3.392L-13.267,4.06L-9.944,1.903Z" style="fill:white;fill-rule:nonzero;"/>
    </g>
    <g transform="matrix(4.16667,0,0,4.16667,2971.96,855.037)">
        <path d="M0,-48.14C-0.031,-48.099 -0.061,-48.057 -0.091,-48.015C-0.114,-48.253 -0.143,-48.49 -0.163,-48.728C-0.281,-50.081 -0.239,-51.431 -0.208,-52.78C0.738,-52.271 1.821,-51.978 2.733,-51.873C1.755,-50.731 1.013,-49.478 0,-48.14M14.204,-56.011C14.085,-56.398 13.998,-56.825 13.854,-57.202C14.059,-57.612 14.202,-58.049 14.223,-58.536C14.28,-59.86 13.487,-61.04 12.896,-62.143C12.142,-63.544 11.749,-64.985 11.252,-66.476C10.733,-68.032 10.157,-69.397 9.882,-71.025C9.637,-72.467 9.503,-73.957 9.173,-75.378C8.602,-77.84 6.878,-79.846 5.962,-82.162C5.134,-84.256 5.993,-87.315 4.241,-89.127C4.039,-89.336 3.807,-89.334 3.577,-89.446C2.81,-89.82 1.981,-90.062 1.201,-90.47C-0.065,-91.132 -1.346,-91.826 -2.675,-92.354C-5.586,-93.512 -8.541,-94.862 -11.503,-95.873C-13.495,-96.553 -15.901,-97.489 -18.116,-97.697C-18.515,-98.013 -18.912,-98.329 -19.316,-98.638C-19.555,-98.819 -19.812,-99.049 -20.084,-99.224C-20.129,-99.404 -20.168,-99.585 -20.197,-99.768C-20.354,-100.763 -20.366,-101.75 -20.372,-102.74C-18.207,-103.9 -17.613,-107.096 -17.502,-109.516C-17.466,-110.311 -17.336,-112.157 -18.475,-112.304C-18.492,-112.307 -18.509,-112.304 -18.526,-112.305C-18.317,-113.709 -18.226,-115.159 -18.046,-116.52C-17.814,-118.282 -17.51,-120.161 -18.06,-121.889C-18.79,-124.181 -20.491,-126.17 -22.854,-126.076C-23.769,-128.323 -28.767,-127.316 -30.352,-126.894C-32.648,-126.282 -34.831,-125.377 -36.957,-124.317C-38.571,-123.513 -40.142,-122.545 -41.792,-121.823C-43.305,-121.16 -44.964,-121.265 -46.443,-120.501C-46.611,-120.414 -46.533,-120.14 -46.348,-120.146C-46.238,-120.15 -46.133,-120.156 -46.025,-120.161C-45.18,-119.989 -44.151,-119.799 -43.091,-119.705C-43.941,-119.271 -44.813,-118.901 -45.794,-118.682C-45.827,-118.675 -45.819,-118.624 -45.786,-118.624C-45.613,-118.624 -45.444,-118.645 -45.272,-118.655C-45.272,-118.626 -45.259,-118.597 -45.226,-118.598C-44.103,-118.633 -42.983,-118.637 -41.862,-118.646C-41.873,-118.609 -41.884,-118.577 -41.894,-118.535C-41.93,-118.384 -41.95,-118.228 -41.971,-118.073C-42.742,-117.633 -43.57,-117.312 -44.524,-117.268C-44.542,-117.267 -44.548,-117.239 -44.528,-117.236C-43.659,-117.1 -42.836,-117.132 -42.027,-117.277C-42.029,-116.864 -42.004,-116.449 -41.977,-116.05C-41.953,-115.7 -41.931,-114.96 -41.792,-114.275C-41.722,-113.654 -41.593,-113.048 -41.433,-112.506C-42.269,-111.454 -41.774,-109.153 -41.648,-108.141C-41.41,-106.242 -40.64,-105.012 -39.346,-103.817C-39.214,-101.341 -38.129,-98.671 -36.908,-96.816C-37.732,-96.316 -38.517,-95.733 -39.361,-95.235C-41.235,-94.128 -43.201,-93.24 -45.18,-92.342C-47.222,-91.414 -49.254,-90.222 -51.406,-89.575C-52.808,-89.155 -54.202,-89.112 -55.229,-87.98C-55.391,-87.803 -55.405,-87.589 -55.308,-87.38C-55.286,-87.311 -55.274,-87.244 -55.264,-87.176C-55.275,-86.97 -55.283,-86.765 -55.302,-86.557C-55.325,-86.483 -55.354,-86.408 -55.392,-86.334C-55.852,-85.369 -56.514,-84.49 -57.112,-83.617C-57.896,-82.474 -58.514,-81.269 -59.125,-80.025C-60.625,-76.972 -60.894,-74.107 -61.004,-70.723C-61.126,-66.981 -61.02,-63.241 -61.054,-59.499C-61.064,-58.383 -61.174,-57.344 -61.303,-56.238C-61.331,-55.999 -61.471,-55.65 -61.411,-55.411C-61.287,-54.917 -61.033,-54.653 -60.692,-54.411C-61.205,-53.445 -61.652,-52.426 -62.237,-51.523C-63.418,-49.699 -64.551,-47.891 -65.189,-45.798C-66.563,-41.295 -66.502,-36.462 -67.846,-31.911C-69.188,-27.371 -72.278,-24.029 -74.624,-20.007C-75.751,-18.075 -76.813,-16.1 -77.621,-14.011C-78.497,-11.743 -78.895,-9.263 -79.376,-6.882C-79.437,-6.579 -79.198,-6.347 -78.898,-6.404C-77.934,-6.589 -77.506,-7.906 -77.232,-8.856C-77.116,-8.294 -76.957,-7.769 -76.79,-7.368C-76.68,-7.103 -76.378,-6.899 -76.095,-7.084C-75.548,-7.442 -75.214,-7.951 -75.012,-8.546C-74.975,-8.502 -74.936,-8.449 -74.901,-8.417C-74.628,-8.16 -74.209,-8.282 -74.094,-8.63C-73.804,-9.502 -73.765,-10.366 -73.813,-11.228C-73.097,-12.033 -72.529,-13.056 -71.915,-13.911C-71.411,-14.611 -70.75,-15.386 -70.314,-16.21C-69.773,-16.115 -69.236,-16.265 -68.71,-16.716C-68.036,-17.291 -67.601,-18.24 -67.018,-18.887C-66.313,-19.668 -65.417,-20.275 -64.745,-21.085C-63.719,-22.321 -63.293,-24.214 -63.64,-25.865C-62.256,-27.929 -60.976,-30.063 -59.414,-32.01C-57.348,-34.585 -55.486,-37.064 -54.15,-40.109C-52.914,-42.925 -51.309,-45.705 -50.311,-48.607C-49.796,-50.103 -49.697,-51.669 -49.125,-53.158C-48.613,-54.489 -48.093,-55.611 -48.015,-56.971C-47.52,-57.455 -47.072,-57.981 -46.667,-58.539C-46.594,-58.031 -46.478,-57.542 -46.31,-57.092C-46.1,-56.531 -45.709,-56.013 -45.442,-55.476C-44.824,-54.232 -44.667,-53.293 -44.67,-51.922C-44.673,-50.954 -44.878,-49.994 -44.979,-49.03C-45.001,-48.818 -45.184,-48.659 -45.184,-48.434C-45.186,-48.089 -45.071,-47.943 -44.94,-47.751C-45.199,-46.533 -45.063,-45.374 -45.462,-44.154C-46.038,-42.391 -47.014,-40.888 -47.9,-39.3C-48.312,-38.563 -48.735,-37.762 -48.891,-36.918C-49.063,-35.982 -48.737,-35.226 -48.687,-34.312C-48.563,-32.054 -50,-32.125 -51.206,-30.907C-51.588,-30.52 -51.841,-30.166 -51.968,-29.644C-52.129,-28.981 -51.729,-28.459 -51.771,-27.91C-51.853,-26.866 -53.363,-25.901 -53.147,-24.512C-53.104,-24.234 -52.983,-24.002 -52.83,-23.791C-53.557,-23.385 -54.187,-22.876 -54.712,-22.222C-56.146,-20.434 -57.288,-18.555 -58.853,-16.876C-62.007,-13.494 -64.736,-10.107 -67.261,-6.222C-69.978,-2.04 -70.735,2.772 -72.063,7.473C-72.808,10.112 -73.892,12.13 -75.493,14.345C-76.255,15.399 -77.236,16.533 -77.704,17.749C-77.851,18.128 -77.907,18.544 -77.954,18.964C-79.116,20.156 -80.102,21.593 -81.107,22.919C-82.565,24.841 -83.987,26.801 -85.203,28.875C-88.063,33.755 -89.473,39.366 -91.021,44.762C-93.271,52.596 -94.042,61.264 -98.551,68.137C-99.281,68.123 -100.31,68.042 -100.431,68.012C-100.612,67.968 -100.856,68.002 -100.982,68.158C-101.78,69.148 -102.814,69.943 -103.678,70.877C-104.716,71.999 -105.728,72.879 -107.082,73.571C-108.16,74.122 -109.195,74.748 -110.252,75.334C-110.756,75.613 -111.634,76.047 -111.954,76.557C-112.836,77.966 -111.41,78.702 -110.308,79.002C-108.046,79.617 -105.652,79.819 -103.308,79.974C-102.131,80.052 -101.296,80.183 -100.185,79.753C-99.047,79.312 -98.085,78.473 -97.003,77.912C-94.61,76.669 -92.139,76.703 -89.606,75.991C-87.072,75.278 -87.872,73.862 -87.213,71.767C-86.853,70.619 -86.371,69.506 -86.036,68.333C-85.708,67.181 -85.827,66.067 -85.844,64.877C-85.504,64.358 -85.172,63.843 -84.897,63.325C-83.972,61.573 -83.1,59.791 -82.163,58.046C-80.181,54.353 -77.205,51.303 -75.278,47.553C-73.678,44.438 -72.464,41.121 -71.817,37.677C-71.428,35.602 -70.991,33.449 -70.359,31.365C-69.579,30.367 -68.737,29.438 -67.879,28.508C-65.957,26.425 -63.866,24.455 -62.078,22.29C-61.282,21.325 -60.295,20.511 -59.479,19.56C-58.593,18.527 -57.729,17.47 -56.839,16.438C-55.942,16.777 -55.05,17.128 -54.126,17.342C-53.059,17.59 -51.303,18.158 -50.186,17.937C-49.225,17.746 -48.44,16.699 -47.912,15.928C-46.744,14.225 -45.742,12.383 -44.636,10.644C-43.576,8.98 -42.145,7.537 -40.943,5.974C-39.646,4.285 -38.305,2.558 -36.84,1.01C-36.139,0.269 -35.409,-0.439 -34.687,-1.154C-34.167,-0.105 -33.543,0.837 -33.069,1.458C-32.063,2.776 -30.855,4.042 -29.547,5.071C-29.618,5.436 -29.666,5.769 -29.704,5.97C-29.852,6.757 -30.1,7.881 -30.161,8.943C-30.598,9.246 -30.999,9.608 -31.312,9.873C-32.94,11.248 -34.566,12.53 -36.053,14.052C-37.334,15.364 -38.514,16.633 -39.244,18.347C-40.077,20.3 -40.386,22.338 -41,24.357C-42.354,28.81 -43.097,33.274 -45.322,37.426C-45.849,38.407 -46.39,39.409 -47.176,40.207C-47.453,40.488 -47.758,40.745 -48.054,41.009C-48.709,41.396 -49.339,41.915 -49.894,42.233C-51.027,42.884 -51.934,43.863 -52.743,44.873C-53.673,46.032 -54.344,47.383 -55.126,48.641C-56.156,50.295 -57.389,51.09 -59.001,52.093C-63.262,54.744 -64.855,60.426 -61.248,64.433C-59.383,66.505 -56.82,67.091 -54.257,66.036C-51.848,65.045 -50.792,62.421 -49.486,60.347C-47.807,57.679 -45.69,55.406 -43.304,53.366C-41.731,52.022 -41.125,49.838 -40.602,47.803C-39.866,47.517 -39.132,47.186 -38.638,46.712C-37.81,45.918 -37.668,44.588 -37.061,43.651C-35.258,40.868 -32.412,38.51 -30.078,36.177C-25.565,31.665 -20.918,26.941 -18.316,21.038C-17.546,19.29 -16.98,17.601 -16.594,15.73C-16.263,14.123 -16.224,12.366 -15.583,10.85C-14.699,8.758 -12.725,6.84 -11.396,4.988C-10.396,3.597 -9.754,2.527 -9.33,1.165C-9.313,1.156 -9.293,1.157 -9.278,1.146C-7.016,-0.692 -5.966,-3.787 -6.09,-6.821C-5.577,-7.357 -5.257,-8.291 -5.059,-8.834C-4.754,-9.67 -4.668,-10.501 -4.725,-11.328C-3.485,-11.826 -2.334,-12.518 -1.36,-13.459C-0.005,-14.769 0.187,-17.254 0.608,-19.02C1.201,-21.513 1.259,-24.037 1.476,-26.573C1.667,-28.82 1.949,-30.97 1.782,-33.233C1.697,-34.385 1.575,-35.535 1.435,-36.682C1.568,-36.787 1.708,-36.887 1.837,-36.997C4.809,-39.518 8.183,-41.539 11.06,-44.216C13.376,-46.372 14.742,-48.152 14.8,-51.349C14.83,-52.957 14.679,-54.473 14.204,-56.011" style="fill:rgb(29,29,27);fill-rule:nonzero;"/>
    </g>
    <g transform="matrix(-4.16667,0,0,4.16667,2889.35,1192.92)">
        <path d="M0.001,-28.71C7.929,-28.71 14.355,-22.283 14.355,-14.355C14.355,-6.427 7.929,0 0.001,0C-7.928,0 -14.354,-6.427 -14.354,-14.355C-14.354,-22.283 -7.928,-28.71 0.001,-28.71" style="fill:rgb(29,29,27);fill-rule:nonzero;"/>
    </g>
    <g transform="matrix(4.16667,0,0,4.16667,2017.64,719.33)">
        <path d="M0,-123.278C0,-123.278 -0.336,-123.882 -0.336,-124.083C-0.336,-124.284 0.066,-124.955 0.066,-124.955C0.066,-124.955 0.67,-125.961 1.14,-125.894C1.609,-125.827 4.092,-124.418 4.763,-124.217C5.433,-124.016 5.299,-124.15 4.829,-125.358C4.359,-126.565 2.481,-128.241 2.481,-128.644C2.481,-129.047 3.354,-128.912 4.494,-128.241C5.634,-127.571 7.58,-125.29 9.525,-123.009C11.471,-120.729 13.147,-117.979 13.147,-117.979C13.147,-117.979 16.3,-116.972 18.916,-115.698C21.531,-114.424 28.374,-113.82 35.484,-113.082C42.595,-112.344 46.888,-109.258 46.888,-109.258L51.382,-108.99C51.382,-108.99 51.649,-109.728 51.448,-110.6C51.247,-111.472 51.247,-111.942 51.649,-112.344C52.052,-112.747 55.474,-111.405 61.443,-111.674C67.413,-111.942 70.498,-111.674 72.242,-109.192C73.986,-106.709 78.414,-104.966 78.95,-104.831C79.487,-104.697 80.225,-106.911 80.225,-106.911C80.225,-106.911 79.085,-107.514 78.615,-108.386C78.146,-109.258 78.078,-111.137 78.146,-113.35C78.213,-115.564 79.621,-118.314 79.621,-118.314C79.621,-118.314 79.822,-120.662 82.505,-123.345C85.188,-126.028 86.999,-126.833 86.999,-126.833C86.999,-126.833 90.152,-127.504 91.493,-127.571C92.835,-127.638 95.786,-124.955 96.524,-124.485C97.263,-124.016 96.927,-122.674 97.731,-121.869C98.537,-121.064 97.866,-120.997 98.872,-119.722C99.878,-118.448 99.61,-117.174 99.61,-117.174C99.61,-117.174 99.812,-115.832 98.939,-113.283C98.067,-110.734 94.579,-107.38 92.903,-105.502C91.226,-103.624 89.013,-99.666 89.616,-98.66C90.22,-97.654 92.098,-97.117 94.446,-97.587C96.794,-98.056 99.61,-97.922 101.489,-95.373C103.366,-92.824 107.324,-89.873 107.593,-89.672C107.861,-89.47 107.525,-89.068 107.525,-89.068C107.995,-89.001 111.215,-89.47 111.215,-89.47C111.215,-89.47 111.35,-91.617 112.087,-94.635C112.824,-97.654 113.831,-103.691 113.764,-105.301C113.697,-106.911 113.228,-112.679 113.228,-113.82C113.228,-114.166 113.52,-114.754 113.924,-115.404L111.395,-118.873L112.225,-119.478L97.214,-140.061C95.369,-139.069 90.163,-136.982 85.393,-141.753C79.143,-148.006 77.545,-161.283 83.38,-164.616C88.065,-167.293 100.53,-161.619 102.63,-153.82C105.281,-143.975 98.374,-140.572 98.374,-140.572L98.121,-140.52L113.035,-120.069L113.864,-120.672L115.807,-118.01C116.145,-118.435 116.38,-118.716 116.38,-118.716L116.916,-118.515C117.453,-118.314 119.063,-116.168 119.063,-116.168C119.063,-116.168 120.473,-116.57 121.545,-114.088C122.619,-111.606 122.418,-108.118 122.418,-108.118C122.418,-108.118 125.168,-104.63 125.234,-104.227C125.301,-103.825 123.088,-102.618 123.088,-102.618L120.271,-106.039L118.795,-103.423C118.795,-103.423 118.729,-101.477 119.131,-94.568C119.533,-87.659 117.855,-81.555 117.855,-81.555C112.154,-79.006 104.44,-80.683 104.44,-80.683C104.44,-80.683 103.3,-79.677 102.763,-79.677C102.227,-79.677 97.128,-82.561 96.323,-82.091C95.519,-81.622 95.987,-78.067 96.524,-76.591C97.062,-75.115 96.122,-74.914 95.251,-68.877C94.378,-62.84 96.188,-56.469 96.056,-55.328C95.921,-54.188 93.036,-53.786 93.036,-53.786L93.171,-51.303C93.171,-51.303 94.446,-50.499 95.72,-45.87C96.995,-41.242 97.128,-34.533 98.067,-32.79C99.007,-31.046 100.013,-28.027 100.55,-25.076C101.086,-22.125 102.897,-18.167 103.031,-17.161C103.165,-16.154 101.69,-15.685 101.69,-15.685C102.562,-13.002 104.44,-3.007 104.373,-1.733C104.306,-0.458 105.916,0.749 107.794,1.488C109.672,2.224 111.685,5.781 112.557,12.555C113.429,19.33 115.373,22.952 115.373,22.952C115.373,22.952 116.514,23.287 117.318,24.092C118.124,24.897 119.131,31.538 119.332,35.765C119.533,39.991 116.85,43.88 114.971,43.948C113.094,44.015 109.873,42.003 109.471,40.728C109.068,39.454 109.672,30.934 109.672,30.934C109.672,30.934 109.27,29.459 109.202,27.245C109.136,25.032 108.733,22.952 105.11,16.714C101.489,10.476 95.585,7.658 94.513,6.988C93.438,6.316 92.769,2.963 91.226,-1.934C89.683,-6.831 86.061,-12.331 86.061,-12.331C86.061,-12.331 84.786,-12.196 84.183,-12.398C83.579,-12.599 78.146,-25.411 77.676,-25.814C77.206,-26.216 75.597,-25.814 75.194,-25.612C74.792,-25.411 73.986,-24.204 72.511,-20.648C71.035,-17.093 70.901,-13.673 70.699,-13.27C70.498,-12.868 67.748,-12.465 67.413,-12.331C67.077,-12.196 63.589,-5.69 63.589,-5.69C65.534,-6.227 68.889,-4.214 71.37,-2.068C73.853,0.079 76.804,-0.256 76.804,-0.256C77.475,-1.866 82.371,-5.153 84.987,-3.409C87.604,-1.665 87.2,2.427 85.457,4.238C83.713,6.049 81.566,7.927 81.365,11.75C81.164,15.574 79.353,18.793 77.206,19.33C75.06,19.867 72.108,19.33 71.84,15.373C71.572,11.414 72.847,7.592 72.847,7.592C72.847,7.592 69.022,6.517 65.333,6.451C61.645,6.384 54.467,8.128 52.723,8.396C50.979,8.664 47.692,6.183 47.559,5.646C47.424,5.109 46.753,1.219 47.29,-2.605C47.826,-6.428 50.174,-16.489 50.174,-16.489C50.174,-16.489 49.101,-17.564 49.034,-18.167C48.967,-18.771 53.327,-26.15 53.796,-27.357C54.266,-28.564 53.998,-30.509 54.132,-30.845C54.266,-31.18 57.083,-35.541 57.352,-36.076C57.62,-36.613 57.754,-38.358 57.754,-38.894C57.754,-39.43 59.028,-40.906 59.699,-42.651C60.37,-44.395 61.712,-50.231 61.645,-51.975C61.578,-53.718 62.383,-54.456 62.383,-54.456L62.516,-56.401C62.516,-56.401 60.706,-57.34 59.699,-58.682C58.693,-60.023 58.693,-61.901 58.693,-61.901C58.693,-61.901 61.242,-62.438 61.712,-63.31C62.182,-64.182 61.846,-66.127 61.779,-67.267C61.712,-68.408 62.383,-69.749 62.383,-69.749C62.383,-69.749 61.443,-72.298 61.31,-73.372C61.175,-74.445 60.236,-80.817 60.438,-82.762C60.639,-84.708 62.583,-91.549 62.583,-91.549C62.583,-91.549 61.578,-93.294 61.712,-94.166C61.846,-95.038 61.712,-97.318 61.712,-97.318C61.712,-97.318 60.035,-98.861 59.229,-99.13C58.425,-99.398 51.851,-99.532 51.649,-99.666C51.448,-99.8 51.583,-100.404 51.583,-100.404L44.138,-102.349C40.247,-102.014 31.526,-103.154 23.812,-107.045C16.099,-110.935 9.928,-114.692 9.928,-114.692C9.928,-114.692 8.116,-114.424 6.305,-114.692C4.494,-114.96 3.823,-115.899 1.609,-117.308C-0.604,-118.716 -0.067,-119.454 0.938,-119.32C1.945,-119.186 3.019,-118.046 3.354,-118.515C3.688,-118.985 1.945,-121.265 1.476,-121.265C1.006,-121.265 -0.135,-119.589 -1.141,-120.125C-2.147,-120.662 0,-123.278 0,-123.278" style="fill:rgb(29,29,27);fill-rule:nonzero;"/>
    </g>
    <g transform="matrix(4.16667,0,0,4.16667,1475.43,823.847)">
        <path d="M0,37.181C7.879,25.446 23.47,21.423 36.028,26.919C32.17,35.457 26.84,43.336 22.648,51.709L22.079,54.086C23.142,55.641 21.586,57.618 22.648,59.255C23.555,60.075 24.787,60.075 26.018,59.993C26.918,59.255 28.315,58.271 28.56,57.043C35.208,57.776 41.444,59.748 47.843,61.231C48.256,65.743 44.235,68.447 42.925,72.227C41.609,74.355 44.729,74.769 44.887,76.579C39.065,81.086 32.826,84.778 25.032,84.616C13.624,84.125 1.972,78.049 -2.378,66.894C-6.646,57.858 -5.822,45.221 0,37.181M48.419,57.618L27.738,53.514C27.738,52.119 29.549,52.036 29.712,50.724C27.99,49.655 27.084,53.514 25.032,52.119C29.135,43.99 34.142,35.954 38.578,28.069C42.018,29.633 45.222,32.666 47.683,35.785C48.011,37.181 47.438,38.655 49.238,39.311C47.188,45.221 49.895,51.787 48.419,57.618M48.419,30.694C46.696,29.059 44.235,28.069 43.334,25.77C44.814,23.065 45.054,19.861 46.861,17.48L50.395,28.888C50.23,29.795 49.238,30.284 48.419,30.694M50.636,13.954C52.851,15.68 54.249,18.137 55.731,20.438C56.867,22.568 54.331,23.638 53.749,25.112C52.938,21.342 50.636,17.893 50.636,13.954M60.482,70.829C60.729,71.16 60.899,71.976 60.243,72.227C59.831,72.143 59.252,72.39 58.847,72.063C58.437,71.075 59.499,70.174 60.482,70.829M61.064,47.603C61.721,46.698 61.794,45.306 63.44,45.638C63.769,47.441 62.209,49.243 61.223,50.561C60.567,49.816 60.817,48.512 61.064,47.603M63.44,65.496L64.419,65.496C64.916,65.743 65.897,65.824 65.571,66.728C65,67.215 64.342,68.202 63.601,67.712L63.44,65.496ZM64.419,70.091C65.988,69.106 66.474,66.485 68.693,66.894C67.952,68.61 66.555,71.16 64.594,71.236C64.757,70.745 64.26,70.588 64.419,70.091M69.11,62.542C68.693,62.542 68.2,62.703 67.952,62.374C68.2,60.578 66.638,58.847 67.712,57.449C69.021,58.847 69.268,60.812 69.11,62.542M68.531,51.709L66.961,51.952C63.851,51.545 66.961,49.243 66.555,47.767C67.051,46.125 68.449,44.481 70.501,44.814C70.91,43.827 70.332,41.857 71.889,41.857C72.548,41.209 73.459,40.629 73.049,39.554C70.91,37.512 68.032,37.181 65.735,35.376C68.364,31.029 71.648,25.112 68.364,20.029L71.479,16.496C79.201,17.402 86.666,18.551 94.133,20.029C95.533,20.351 96.513,21.582 96.104,23.15C95.206,24.867 93.811,25.604 92.324,26.761C91.427,24.867 92.572,22.161 91.347,20.438C89.047,20.933 91.1,23.638 90.192,25.367C89.13,24.213 89.296,21.833 87.399,21.179C86.341,22.655 88.39,24.379 88.798,25.936C89.621,27.249 88.062,28.809 89.372,29.876C82.885,37.342 75.501,44.481 68.531,51.709M98.237,17.071C90.192,16.417 82.149,14.533 74.025,13.301C77.392,8.536 81.91,4.356 85.271,-0.492L85.677,-0.492C86.42,1.649 89.13,0.082 90.604,1.153C91.589,4.11 92.992,7.877 96.265,8.782C95.443,10.592 97.907,12.23 96.513,13.708C97.011,14.859 96.845,16.252 98.237,17.071M98.889,7.382C100.293,6.81 102.995,4.511 103.812,7.062C102.514,8.048 100.373,7.556 98.889,7.382M99.88,10.021C100.127,9.274 100.945,9.768 101.445,9.355C102.514,10.181 100.945,11.491 101.603,12.564C102.012,13.461 102.259,14.942 103.575,14.942C103.812,17.807 104.893,20.603 104.147,23.559C102.339,20.853 101.774,17.156 101.854,13.708C101.198,12.482 99.88,11.491 99.88,10.021M101.445,32.666C105.051,39.891 105.709,48.427 112.273,54.497C112.354,55.564 111.204,56.384 111.862,57.449C112.521,59.012 114.237,60.24 115.967,59.421C117.453,58.598 118.514,56.96 117.775,55.314C117.197,54.413 116.378,53.434 115.226,53.514C110.226,48.754 109.568,41.936 107.51,35.785C107.51,33.736 105.709,32.501 106.367,30.284C111.453,27.168 119.09,28.562 124.5,29.876C133.699,33.41 141.079,42.762 141.976,52.526C143.543,63.438 139.112,73.047 130.571,79.531C123.104,85.114 110.796,85.685 102.59,81.25C93.811,76.408 88.311,67.056 88.062,57.043C88.311,47.193 92.741,37.914 101.445,32.666M125.071,26.348C119.251,24.379 112.683,24.299 106.772,26.099C107.106,25.529 108.415,24.958 108.335,23.961C108.164,23.15 107.268,23.227 106.772,22.987C105.709,20.603 104.893,17.893 105.547,15.103C108.497,13.301 108.907,17.234 109.729,18.634C112.762,23.308 119.09,22.987 124.091,22.568C125.901,22.655 127.457,20.853 129.181,21.833C129.181,22.905 129.499,23.216 128.439,24.79C127.783,26.023 126.303,26.84 125.071,26.348M114.814,18.634C113.583,17.731 111.946,16.66 112.683,14.942C114.814,15.181 116.214,13.624 118.184,13.301C118.678,14.444 119.572,15.6 118.922,16.906C117.775,17.972 116.378,19.125 114.814,18.634M115.645,8.048C116.378,9.274 115.14,10.265 114.403,11C113.421,11 112.185,11.823 111.453,11L115.645,8.048ZM117.365,3.451C114.736,3.857 113.176,7.469 110.465,7.226L110.465,5.827C112.762,4.511 114.98,2.631 117.197,1.73C118.184,1.887 117.931,3.038 117.365,3.451M107.106,11.164L105.374,11.164L105.374,10.181C105.789,9.685 106.28,9.524 106.938,9.609L107.106,11.164ZM82.885,-8.123C80.015,-9.194 77.806,-11.898 75.257,-13.873C77.139,-14.112 79.442,-14.112 81.331,-13.873C83.388,-12.72 82.401,-10.014 82.885,-8.123M70.91,0.333C68.854,1.229 66.961,2.386 65.158,3.857L64.014,-0.492C66.474,-0.657 68.613,0.082 70.91,0.333M65.735,59.587L65.988,59.834C66.638,60.485 66.392,62.049 66.145,62.542C65.234,62.703 64.419,62.374 63.601,62.215C63.686,61.064 65,60.24 65.735,59.587M63.601,54.665L64.757,54.497L64.014,55.641C63.686,55.401 63.513,55.069 63.601,54.665M60.482,69.106L59.499,69.106C59.342,68.124 59.831,67.462 60.243,66.728L60.482,69.106ZM49.001,9.198C48.915,9.524 48.499,9.355 48.256,9.355C46.532,6.985 45.141,3.697 44.887,0.905C46.453,3.612 47.273,6.645 49.001,9.198M43.499,19.205L41.363,24.79L40.952,24.79C40.952,22.568 42.593,20.853 43.499,19.205M126.063,-5.414C125.976,-6.399 126.799,-7.223 127.623,-7.712C128.031,-6.568 126.799,-5.83 126.225,-5.171L126.063,-5.414ZM-6.324,66.311C-2.464,78.297 9.845,86.923 22.079,87.987C29.953,88.063 37.096,86.176 43.334,82.072L49.001,76.979C49.735,76.817 50.395,77.069 50.636,77.73C50.067,79.041 49.158,80.514 49.814,82.072L62.457,81.909C62.697,80.92 61.794,79.443 63.198,78.956C64.509,79.041 65.897,78.956 66.555,77.73C66.231,76.327 64.509,76.085 63.601,75.012C67.625,73.536 71.402,69.353 72.059,64.92C72.632,61.064 71.152,57.776 70.332,54.665C80.103,45.221 88.798,34.716 98.889,25.367C99.958,25.277 100.373,26.592 100.863,27.331C100.204,30.864 96.188,31.348 94.298,33.815C85.107,42.355 83.141,56.303 86.829,67.712C91.017,77.97 100.293,86.842 111.862,87.165C122.857,87.412 132.865,84.455 139.598,75.181C146.005,67.215 146.664,54.739 143.543,45.064C141.409,37.845 134.595,31.348 128.031,27.741C130.409,24.958 133.365,22.486 134.516,19.205C134.107,17.643 131.97,18.963 130.985,18.463C129.919,17.565 130.167,14.694 128.031,15.68C127.623,17.402 125.735,18.881 124.253,19.861C122.53,19.947 119.659,21.342 118.592,19.455C122.119,17.972 122.612,14.2 124.5,11.571C123.187,9.768 119.826,11.983 119.33,9.198C119.572,8.209 119.09,7.062 117.931,7.226C117.689,7.309 117.607,6.985 117.365,6.81C119.659,3.12 124.34,4.511 127.623,2.711C127.211,0.333 130.738,0.411 129.181,-2.217C127.871,-4.187 130.49,-5.992 130.571,-8.123C130.738,-9.517 130.409,-10.749 129.423,-11.484C126.725,-12.558 125.65,-9.27 123.271,-10.34C120.313,-8.039 116.214,-8.374 112.683,-7.548C108.006,-7.303 102.671,-6.234 98.237,-7.712C95.443,-10.669 96.188,-15.094 96.925,-18.791C98.733,-21.007 101.572,-14.54 102.837,-17.808C102.995,-19.952 105.627,-19.608 105.789,-21.907C107.51,-21.172 107.353,-23.128 108.979,-22.373C110.263,-21.67 110.142,-24.044 110.298,-24.869C111.862,-25.934 112.354,-27.658 112.683,-29.052L112.273,-29.379C113.176,-30.774 115.226,-30.115 116.378,-31.346C117.029,-36.681 115.882,-41.777 112.03,-45.549C106.527,-49.16 99.958,-50.882 92.741,-50.054C91.669,-49.569 90.437,-48.909 89.784,-47.763C89.533,-45.625 87.654,-43.82 88.641,-41.447C89.784,-40.051 91.998,-40.212 92.324,-38.244L91.347,-37.256C82.809,-38.486 75.836,-44.236 66.392,-42.593C53.671,-40.868 41.035,-35.041 34.067,-23.302C33.157,-18.055 31.438,-13.701 34.067,-8.695L33.643,-8.374L28.15,-8.123C27.738,-7.058 28.065,-5.83 28.724,-5.005C31.03,-3.033 34.796,-4.267 36.438,-1.069L41.529,-0.078C42.755,3.365 44.065,6.734 44.887,10.181L36.606,22.815C24.619,18.463 10.257,21.342 1.148,30.454C-8.703,39.806 -10.588,53.762 -6.324,66.311" style="fill:rgb(29,29,27);fill-rule:nonzero;"/>
    </g>
    <g transform="matrix(4.16667,0,0,4.16667,1321.85,1195.39)">
        <path d="M0,-222.29C6.909,-222.29 12.506,-216.692 12.506,-209.784C12.506,-202.888 6.909,-197.29 0,-197.29C-6.896,-197.29 -12.494,-202.888 -12.494,-209.784C-12.494,-216.692 -6.896,-222.29 0,-222.29M-45.033,-174.9C-42.865,-175.744 -40.696,-177.156 -38.2,-177.156C-34.443,-177.156 -28.984,-175.542 -27.181,-171.937C-26.728,-171.029 -27.068,-171.483 -26.475,-170.361C-25.896,-169.239 -25.681,-169.113 -25.101,-168.571C-24.521,-168.029 -24.357,-167.487 -24.105,-166.768C-23.437,-164.902 -22.756,-162.456 -21.937,-160.691C-21.735,-160.263 -21.533,-159.985 -21.395,-159.771C-16.818,-163.629 -16.944,-166.239 -13.565,-170.525C-13.112,-171.105 -8.384,-176.829 -7.426,-177.762C-6.808,-178.367 -7.174,-178.909 -7.464,-179.716C-7.577,-180.056 -7.69,-180.182 -7.3,-180.762C-6.896,-181.342 -6.984,-180.762 -5.862,-181.115C-5.232,-181.317 -4.879,-182.199 -4.602,-182.83C-4.4,-183.296 -4.715,-185.036 -4.753,-185.767C-4.804,-186.712 -3.316,-186.927 -2.673,-185.074C-2.497,-184.595 -2.32,-184.053 -2.32,-184.053C-0.946,-185.427 -0.504,-186.221 -0.164,-188.1C0.025,-189.184 0.605,-189.839 1.235,-188.768C1.689,-187.986 1.765,-186.498 1.273,-185.376C1.059,-184.897 0.87,-184.809 1.815,-185.124C3.58,-185.704 4.513,-186.574 5.61,-187.078C8.396,-188.364 7.135,-185.565 6.114,-184.557C5.194,-183.662 5.207,-183.75 4.626,-182.842C3.278,-180.775 1.664,-178.619 -0.441,-177.333C-1.312,-176.803 -1.526,-177.27 -2.534,-176.564C-4.324,-173.311 -6.077,-163.755 -9.279,-160.099C-12.28,-156.67 -15.444,-154.514 -18.747,-150.845L-19.869,-149.597L-20.777,-149.194C-17.222,-144.453 -14.41,-138.54 -13.981,-135.767C-13.402,-131.922 -13.654,-133.763 -13.654,-130.674C-13.654,-127.585 -15.066,-125.757 -15.356,-123.374C-15.658,-121.004 -15.28,-121.332 -14.902,-120.714C-13.452,-118.306 -13.969,-115.835 -13.439,-113.666C-12.633,-110.3 -12.406,-110.906 -12.153,-107.035C-11.99,-104.489 -10.905,-105.825 -10.905,-102.661C-10.905,-98.967 -14.813,-99.811 -17.65,-100.152C-17.839,-99.257 -17.121,-96.849 -18.255,-93.331C-17.512,-93.117 -14.334,-91.718 -12.658,-87.393C-12.065,-85.893 -13.944,-82.804 -13.439,-81.48C-12.242,-78.266 -14.523,-78.644 -12.153,-74.383C-11.195,-72.668 -13.969,-73.034 -11.864,-70.928C-11.195,-70.26 -10.981,-67.55 -10.981,-67.096C-10.981,-66.869 -11.082,-66.793 -11.384,-66.629C-11.145,-65.722 -10.918,-64.637 -10.956,-63.78C-11.044,-62.28 -11.006,-59.191 -10.918,-57.275C-10.83,-55.358 -10.704,-54.148 -10.502,-52.888C-10.288,-51.639 -10.502,-50.895 -9.456,-48.979C-8.422,-47.05 -8.548,-48.475 -8.296,-45.891C-8.043,-43.306 -8.548,-43.432 -7.161,-41.049C-5.787,-38.679 -1.866,-29.211 -1.538,-27.459C-1.198,-25.706 -1.122,-25.202 -0.29,-23.79C0.555,-22.378 0.302,-22.958 0.882,-21.117C1.462,-19.289 1.134,-19.289 1.878,-18.785C2.105,-18.634 2.256,-18.495 2.382,-18.344C3.921,-18.735 4.74,-16.516 5.509,-15.595C6.883,-13.982 8.9,-14.461 10.766,-14.347C14.662,-14.108 13.893,-9.455 12.935,-6.707C11.548,-2.736 8.182,-3.72 5.383,-3.72C4.223,-3.72 3.883,-3.442 3.177,-2.622C1.21,-0.378 -3.064,0 -5.573,-1.463C-7.779,-2.724 -7.451,-5.61 -5.661,-9.935C-5.119,-11.259 -5.51,-11.422 -4.917,-11.851C-5.144,-12.292 -5.283,-12.62 -5.283,-12.62C-5.283,-12.62 -5.119,-13.705 -6.543,-15.28C-7.956,-16.869 -8.208,-17.701 -8.964,-18.873C-9.708,-20.033 -10.792,-21.786 -11.372,-22.87C-11.964,-23.954 -10.956,-22.706 -12.204,-24.458C-13.465,-26.21 -15.041,-26.627 -15.545,-28.379C-16.049,-30.131 -17.965,-32.716 -18.381,-34.216C-18.797,-35.716 -19.466,-37.305 -19.718,-38.881C-19.97,-40.469 -19.629,-40.558 -20.209,-41.881C-20.802,-43.218 -28.644,-55.724 -30.22,-57.728C-31.808,-59.733 -31.808,-61.322 -34.481,-64.574C-35.073,-65.293 -35.603,-66.226 -36.082,-67.26C-36.599,-67.487 -37.242,-67.776 -38.326,-68.243C-44.188,-61.876 -47.378,-53.14 -55.699,-44.592C-55.787,-44.504 -55.875,-44.415 -55.951,-44.327L-56.014,-44.403C-59.973,-40.532 -61.851,-42.386 -68.772,-47.769C-75.593,-53.064 -78.568,-56.064 -89.02,-60.452C-90.406,-61.044 -90.81,-60.994 -92.423,-61.233C-93.697,-59.393 -95.197,-59.267 -97.214,-58.586C-97.34,-58.536 -102.837,-54.917 -103.366,-54.514C-104.703,-53.505 -105.346,-52.421 -106.442,-51.173C-113.729,-42.915 -116.011,-60.855 -111.46,-64.839C-110.716,-65.495 -108.939,-65.999 -108.145,-65.961C-105.85,-65.835 -105.283,-70.071 -104.337,-71.382C-103.934,-71.937 -103.039,-72.908 -101.425,-74.357C-99.811,-75.82 -98.903,-75.971 -96.899,-75.265C-94.983,-74.572 -93.003,-72.013 -92.121,-72.151C-91.642,-72.227 -91.654,-72.315 -90.911,-71.798L-90.923,-71.471C-90.558,-71.458 -90.167,-71.483 -89.763,-71.534C-88.313,-71.672 -90.898,-69.983 -87.67,-70.31C-86.46,-70.436 -87.368,-69.844 -86.309,-69.277C-81.039,-66.491 -69.428,-65.772 -62.809,-61.599C-62.116,-64.385 -61.586,-67.398 -61.095,-70.02C-61.498,-69.894 -61.674,-69.996 -61.473,-70.386C-61.057,-71.218 -61.649,-71.723 -61.561,-73.475C-61.473,-75.454 -58.788,-77.875 -58.888,-83.889C-58.989,-89.247 -58.17,-91.503 -56.064,-94.239C-54.64,-96.067 -54.64,-94.983 -54.64,-97.315C-54.64,-100.341 -50.265,-97.239 -50.883,-101.829C-51.412,-105.623 -44.629,-100.807 -46.306,-105.825C-46.886,-107.577 -46.218,-107.237 -44.466,-108.41C-42.713,-109.582 -43.381,-109.405 -44.05,-110.578C-44.718,-111.75 -43.129,-111.574 -42.045,-113.25C-39.196,-117.638 -41.957,-121.118 -42.638,-125.757C-42.915,-127.648 -46.634,-134.292 -46.672,-134.469C-47.214,-136.624 -46.104,-138.477 -46.092,-138.516C-45.84,-139.348 -45.966,-139.019 -46.723,-140.848C-47.92,-143.785 -45.777,-144.819 -46.054,-145.399C-46.634,-146.647 -46.218,-146.231 -46.054,-147.151C-46.017,-147.328 -45.991,-147.466 -45.953,-147.58C-46.332,-148.425 -46.735,-149.345 -47.151,-150.303C-48.916,-147.416 -51.942,-145.336 -56.959,-146.735C-57.401,-146.861 -57.817,-146.975 -58.233,-147.063C-59.91,-147.025 -61.662,-147.29 -63.894,-146.508C-67.449,-145.273 -68.697,-143.81 -68.697,-143.81C-68.697,-143.81 -69.024,-144.604 -68.697,-145.802C-71.634,-143.772 -73.349,-142.159 -74.748,-138.843C-74.748,-138.843 -74.874,-142.474 -74.282,-145.802C-75.441,-143.457 -76.791,-140.407 -76.791,-140.407C-76.791,-140.407 -76.929,-140.659 -76.955,-143.394C-76.967,-145.109 -76.526,-146.685 -75.542,-148.299C-76.917,-147.038 -78.719,-145.185 -80.043,-143.066L-82.464,-139.184C-82.464,-139.184 -84.796,-152.106 -76.715,-158.889C-68.646,-165.671 -63.742,-162.065 -63.742,-162.065L-67.524,-164.638C-67.524,-164.638 -64.927,-165.621 -59.847,-162.998C-55.573,-160.78 -54.312,-155.611 -50.896,-158.145C-51.967,-160.187 -53.013,-161.952 -53.896,-163.024C-57.93,-167.903 -61.46,-170.815 -65.696,-175.089C-71.483,-180.951 -72.693,-186.99 -80.749,-191.629C-83.901,-193.445 -90.343,-194.668 -93.987,-195.31C-94.289,-195.374 -94.466,-196.181 -94.188,-196.508C-93.924,-196.824 -93.533,-196.874 -93.407,-196.899C-93.293,-196.924 -93.608,-197.202 -93.041,-197.366C-92.486,-197.542 -89.75,-197.908 -88.376,-197.756C-88.843,-197.983 -89.07,-198.122 -89.297,-198.311C-89.826,-198.765 -89.234,-199.345 -88.717,-199.408C-87.002,-199.584 -85.351,-197.555 -83.977,-197.29C-82.073,-196.95 -79.161,-196.193 -77.333,-195.588C-74.635,-194.68 -74.66,-192.865 -73.727,-192.323C-72.882,-191.831 -66.503,-186.296 -64.007,-184.771C-61.511,-183.258 -56.556,-179.4 -55.421,-178.253C-54.299,-177.093 -51.173,-172.479 -49.42,-170.487C-49.345,-170.399 -49.269,-170.298 -49.193,-170.21L-45.033,-174.9Z" style="fill:rgb(29,29,27);"/>
    </g>
    <g transform="matrix(4.16667,0,0,4.16667,279.461,943.598)">
        <path d="M0,-89.024C-0.002,-89.008 -0.008,-88.988 -0.012,-88.972C-2.327,-90.879 -5.399,-93.061 -8.828,-95.323C-7.484,-95.806 -6.132,-96.17 -5.104,-96.17C-2.042,-96.17 -0.425,-96.255 -0.425,-96.255C-0.425,-96.255 0.341,-90.811 0,-89.024M42.114,-88.088C42.995,-89.685 44.194,-91.783 45.048,-94.262C47.502,-91.581 50.302,-87.977 49.431,-86.301C48.422,-84.361 44.865,-79.097 40.697,-78.832C40.786,-79.291 40.838,-79.692 40.838,-80.005C40.838,-82.813 40.753,-85.621 42.114,-88.088M45.597,-118.76C47.799,-118.189 50.096,-117.691 51.675,-117.646C51.366,-117.086 50.99,-116.56 50.529,-116.096L50.517,-116.087C49.702,-116.931 48.835,-117.491 47.899,-117.61L45.602,-117.525C45.602,-117.525 45.558,-118.078 45.597,-118.76M46.049,-120.694C47.849,-120.125 50.365,-119.506 52.369,-119.272C52.254,-118.913 52.119,-118.558 51.962,-118.214C50.38,-118.197 47.742,-118.795 45.651,-119.34C45.715,-119.83 45.834,-120.322 46.049,-120.694M47.788,-123.59C49.02,-123.455 50.668,-123.312 52.109,-123.312C52.409,-123.312 52.697,-123.319 52.974,-123.333C52.957,-122.263 52.844,-121.037 52.53,-119.834C50.629,-120.044 48.21,-120.627 46.426,-121.179C47.098,-121.957 47.216,-122.861 47.788,-123.59M49.346,-126.458C49.312,-126.528 49.28,-126.593 49.248,-126.661C52.151,-126.331 54.513,-125.274 54.815,-124.544C54.859,-124.439 54.843,-124.367 54.757,-124.28C54.21,-123.734 51.118,-123.845 48.395,-124.11C49.229,-124.549 50.286,-124.506 49.346,-126.458M53.67,-119.755C53.49,-119.758 53.301,-119.767 53.104,-119.781C53.378,-120.861 53.528,-122.063 53.545,-123.374C54.098,-123.43 54.554,-123.528 54.869,-123.681C54.838,-122.518 54.411,-121.11 53.67,-119.755M52.729,-118.298C52.691,-118.289 52.648,-118.282 52.607,-118.274C52.732,-118.575 52.846,-118.888 52.946,-119.215C53.079,-119.204 53.212,-119.193 53.338,-119.187C53.151,-118.884 52.947,-118.587 52.729,-118.298M65.17,52.377C62.739,52.427 63.213,51.441 63.213,51.441C63.213,51.441 63.383,42.338 62.533,37.403C61.682,32.469 61.086,13.836 61.767,9.242C62.448,4.648 61.597,-2.329 60.491,-5.987C59.385,-9.645 58.62,-24.364 55.897,-27.086C53.174,-29.809 53.94,-32.617 52.919,-36.445C51.898,-40.274 41.688,-63.84 38.541,-64.691C35.393,-65.542 36.839,-67.669 36.839,-67.669C36.839,-67.669 36.918,-67.857 37.05,-68.179C41.937,-68.459 51.237,-69.475 53.43,-71.668C56.067,-74.305 64.66,-75.922 64.66,-80.431C64.66,-84.94 61.852,-97.361 58.704,-101.445C56.287,-104.581 53.969,-112.077 50.905,-115.659C53.881,-117.858 55.749,-121.967 55.413,-124.455L55.408,-124.454C55.407,-124.556 55.392,-124.66 55.348,-124.765C54.886,-125.881 51.945,-126.978 48.949,-127.267C48.098,-128.975 47.644,-129.747 47.644,-130.712C47.644,-131.818 50.877,-131.563 52.153,-131.563C53.429,-131.563 55.046,-132.159 55.046,-133.18C55.046,-134.2 50.537,-134.626 50.537,-134.626C50.537,-134.626 49.686,-149.26 35.223,-149.26C30.374,-149.26 21.355,-143.56 20.164,-136.243C18.973,-128.926 21.95,-130.968 21.95,-130.968C21.95,-130.968 22.801,-127.479 21.44,-126.118C20.079,-124.757 19.057,-122.715 15.825,-122.715C12.592,-122.715 9.358,-119.397 5.956,-119.397C2.552,-119.397 -0.51,-117.951 -3.233,-115.228C-5.956,-112.506 -12.506,-111.74 -14.974,-109.273C-16.579,-107.667 -19.407,-105.628 -21.892,-103.416C-24.84,-105.153 -27.702,-106.791 -30.263,-108.225C-41.076,-114.28 -54.629,-122.083 -58.089,-121.354C-61.55,-120.625 -63.568,-114.28 -62.415,-111.829C-61.262,-109.378 -42.662,-100.583 -34.876,-95.825C-28.585,-91.981 -11,-81.924 -4.479,-78.205C-4.977,-77.213 -5.387,-76.49 -5.615,-76.262C-6.593,-75.283 -3.829,-72.944 -5.104,-69.626C-6.381,-66.308 -6.296,-64.607 -6.636,-62.904C-6.977,-61.203 -8.508,-58.991 -8.508,-55.418C-8.508,-51.844 -9.87,-43.336 -9.529,-37.466C-9.188,-31.596 -6.806,-20.28 -7.998,-16.452C-9.188,-12.623 -12.421,-5.392 -14.038,2.01C-15.655,9.413 -16.165,17.24 -17.271,21.664C-18.377,26.088 -22.801,37.743 -22.801,40.806C-22.801,42.236 -21.485,43.48 -19.33,44.478C-19.743,46.113 -18.707,47.407 -18.033,48.081C-17.09,49.024 -16.817,51.282 -17.717,53.383C-18.618,55.484 -17.467,56.934 -15.817,58.585C-14.166,60.236 -7.813,58.585 -5.712,58.585C-3.611,58.585 -3.011,58.185 -3.512,54.884C-3.881,52.443 -4.523,50.11 -4.833,47.201C-1.182,47.252 -0.17,46.096 -0.17,41.232C-0.17,34.766 3.573,24.216 5.19,15.283C6.807,6.35 9.529,2.521 10.38,-0.882C11.23,-4.286 9.869,-7.604 12.847,-13.304C15.825,-19.004 12.422,-24.024 12.932,-27.171C13.442,-30.319 15.484,-35.424 17.441,-35.424C19.398,-35.424 24.162,-20.195 33.351,-11.006C42.54,-1.818 39.259,0.073 38.796,5.754C38.2,13.071 38.881,16.814 40.157,21.238C41.434,25.663 42.795,36.808 42.795,39.36C42.795,41.913 42.114,49.059 41.178,50.761C40.242,52.462 39.136,57.226 43.73,57.737C48.325,58.247 69.85,57.737 69.85,57.737C69.85,57.737 70.546,52.266 65.17,52.377" style="fill:rgb(29,29,27);fill-rule:nonzero;"/>
    </g>
    <g>
        <path d="M1699.86,2047.42C1680.65,2096.7 1661.49,2134.77 1610.4,2134.77L1610.4,2156.1C1663.02,2156.1 1689.07,2111.84 1712.57,2054.24L1786.64,1868.11L1762.12,1868.11L1707.46,2027.04L1642.59,1868.11L1618.07,1868.11L1699.86,2047.42ZM2075.26,1868.11L2075.26,2156.1L2095.69,2156.1L2095.69,2005.05C2109.08,2033.15 2134.27,2052.1 2163.12,2052.1C2203.89,2052.1 2231.07,2014.77 2231.07,1958.77C2231.07,1904.37 2201.85,1868.11 2158.02,1868.11L2111.02,1868.11L2095.55,1882.22L2093.12,1868.11L2075.26,1868.11ZM2587.11,1812.64L2587.11,1985.44C2587.11,2028.77 2607.32,2052.1 2644.84,2052.1C2657.43,2052.1 2672.22,2048.26 2684.17,2044.1L2684.17,2021.7C2673.04,2029.94 2658.48,2035.04 2644.84,2035.04C2620.6,2035.04 2607.55,2018.5 2607.55,1985.44L2607.55,1886.77L2679.06,1886.77L2679.06,1868.11L2607.55,1868.11L2607.55,1804.11L2587.11,1812.64ZM217.365,1872.37C203.405,1867.51 188.66,1865.44 173.944,1865.44C124.904,1865.44 92.211,1902.77 92.211,1958.77C92.211,2014.77 124.904,2052.1 173.944,2052.1C188.66,2052.1 203.405,2050.03 217.365,2045.17L217.365,2021.7C203.071,2031.65 191.124,2035.04 173.944,2035.04C137.777,2035.04 113.666,2004.53 113.666,1958.77C113.666,1913.01 137.777,1882.51 173.944,1882.51C191.124,1882.51 203.071,1885.89 217.365,1895.84L217.365,1872.37ZM2719.93,2038.77C2737.3,2045.7 2758.91,2052.1 2778.67,2052.1C2819.26,2052.1 2845.08,2030.44 2845.08,1998.77C2845.08,1967.33 2816.44,1955.49 2788.06,1947.55C2766.01,1941.38 2740.36,1934.19 2740.36,1913.44C2740.36,1895.59 2759,1884.11 2783.78,1884.11C2801.85,1884.11 2820.56,1888.37 2834.87,1897.44L2834.87,1873.44C2820.56,1869.17 2803.59,1865.44 2787.87,1865.44C2746.05,1865.44 2719.93,1886.25 2719.93,1913.44C2719.93,1941.72 2748.75,1957.55 2776.78,1965.39C2798.93,1971.59 2824.65,1979.29 2824.65,2000.37C2824.65,2021.73 2806.26,2033.44 2776.12,2033.44C2758.09,2033.44 2739.85,2028.1 2719.93,2014.77L2719.93,2038.77ZM2259.16,1958.77C2259.16,2014.77 2290.83,2052.1 2338.34,2052.1C2385.84,2052.1 2417.51,2014.77 2417.51,1958.77C2417.51,1902.77 2385.84,1865.44 2338.34,1865.44C2290.83,1865.44 2259.16,1902.77 2259.16,1958.77ZM1906.69,2038.77C1924.06,2045.7 1945.67,2052.1 1965.43,2052.1C2006.01,2052.1 2031.84,2030.44 2031.84,1998.77C2031.84,1967.33 2003.2,1955.49 1974.82,1947.55C1952.77,1941.38 1927.12,1934.19 1927.12,1913.44C1927.12,1895.59 1945.76,1884.11 1970.54,1884.11C1988.61,1884.11 2007.32,1888.37 2021.62,1897.44L2021.62,1873.44C2007.32,1869.17 1990.35,1865.44 1974.63,1865.44C1932.81,1865.44 1906.69,1886.25 1906.69,1913.44C1906.69,1941.72 1935.51,1957.55 1963.54,1965.39C1985.69,1971.59 2011.41,1979.29 2011.41,2000.37C2011.41,2021.73 1993.02,2033.44 1962.88,2033.44C1944.85,2033.44 1926.61,2028.1 1906.69,2014.77L1906.69,2038.77ZM1498.02,1812.64L1498.02,1985.44C1498.02,2028.77 1518.23,2052.1 1555.75,2052.1C1568.34,2052.1 1583.13,2048.26 1595.08,2044.1L1595.08,2021.7C1583.95,2029.94 1569.39,2035.04 1555.75,2035.04C1531.51,2035.04 1518.45,2018.5 1518.45,1985.44L1518.45,1886.77L1589.97,1886.77L1589.97,1868.11L1518.45,1868.11L1518.45,1804.11L1498.02,1812.64ZM1037.25,1868.11L1037.25,2002.5C1037.25,2032.26 1059.32,2052.1 1092.42,2052.1C1124.33,2052.1 1151.97,2032.86 1165.25,2004.88L1167.51,2049.44L1184.37,2050.5C1184.37,2050.5 1182.84,2021.7 1182.84,2000.37L1182.84,1868.11L1162.41,1868.11L1162.41,1964.11C1162.41,2003.85 1134.03,2036.1 1099.06,2036.1C1074.24,2036.1 1057.68,2020.96 1057.68,1998.24L1057.68,1868.11L1037.25,1868.11ZM245.461,1958.77C245.461,2014.77 277.132,2052.1 324.64,2052.1C372.147,2052.1 403.819,2014.77 403.819,1958.77C403.819,1902.77 372.147,1865.44 324.64,1865.44C277.132,1865.44 245.461,1902.77 245.461,1958.77ZM1428.04,1868.11L1428.04,2001.44L1430.59,2048.37L1450,2050.5C1450,2050.5 1448.47,2021.7 1448.47,2000.37L1448.47,1868.11L1428.04,1868.11ZM2455.83,2049.44L2476.26,2049.44L2476.26,1956.11C2476.26,1916.11 2497.72,1889.44 2529.9,1889.44L2552.89,1889.44L2552.89,1865.44L2541.14,1865.44C2513.95,1865.44 2489.99,1883.56 2475.99,1911.03L2473.69,1868.11L2455.83,1868.11L2455.83,2049.44ZM1233.92,1868.11L1233.92,2049.44L1254.35,2049.44L1254.35,1953.44C1254.35,1913.69 1282.96,1881.44 1318.21,1881.44C1342.73,1881.44 1359.08,1896.37 1359.08,1918.77L1359.08,2049.44L1379.51,2049.44L1379.51,1916.11C1379.51,1885.7 1350.9,1865.44 1320.76,1865.44C1292.16,1865.44 1267.2,1883.47 1254.04,1910.17L1251.78,1868.11L1233.92,1868.11ZM442.131,2049.44L462.564,2049.44L462.564,1953.44C462.564,1913.69 488.883,1881.44 521.31,1881.44C542.765,1881.44 557.068,1895.31 557.068,1916.11L557.068,2049.44L577.502,2049.44L577.502,1953.44C577.502,1913.69 603.82,1881.44 636.247,1881.44C657.702,1881.44 672.006,1895.31 672.006,1916.11L672.006,2049.44L692.439,2049.44L692.439,1913.44C692.439,1884.64 670.984,1865.44 638.802,1865.44C612.649,1865.44 589.76,1882.74 577.289,1908.54C574.986,1882.48 554.187,1865.44 523.864,1865.44C497.59,1865.44 474.61,1882.9 462.178,1908.9L457.947,1868.11L442.131,1868.11L442.131,2049.44ZM740.968,2049.44L761.401,2049.44L761.401,1953.44C761.401,1913.69 787.719,1881.44 820.147,1881.44C841.602,1881.44 855.905,1895.31 855.905,1916.11L855.905,2049.44L876.339,2049.44L876.339,1953.44C876.339,1913.69 902.657,1881.44 935.084,1881.44C956.539,1881.44 970.842,1895.31 970.842,1916.11L970.842,2049.44L991.276,2049.44L991.276,1913.44C991.276,1884.64 969.821,1865.44 937.638,1865.44C911.486,1865.44 888.597,1882.74 876.126,1908.54C873.823,1882.48 853.024,1865.44 822.701,1865.44C796.426,1865.44 773.447,1882.9 761.015,1908.9L756.784,1868.11L740.968,1868.11L740.968,2049.44ZM2280.61,1958.77C2280.61,1912.37 2304.01,1881.44 2338.34,1881.44C2372.66,1881.44 2396.06,1912.37 2396.06,1958.77C2396.06,2005.17 2372.66,2036.1 2338.34,2036.1C2304.01,2036.1 2280.61,2005.17 2280.61,1958.77ZM266.916,1958.77C266.916,1912.37 290.312,1881.44 324.64,1881.44C358.968,1881.44 382.364,1912.37 382.364,1958.77C382.364,2005.17 358.968,2036.1 324.64,2036.1C290.312,2036.1 266.916,2005.17 266.916,1958.77ZM2095.69,1884.11L2159.55,1884.11C2189.28,1884.11 2209.1,1913.97 2209.1,1958.77C2209.1,2005.17 2189.28,2036.1 2159.55,2036.1C2124.3,2036.1 2095.69,2001.46 2095.69,1958.77L2095.69,1884.11ZM1428.04,1806.77L1442.85,1806.77C1447.91,1806.77 1448.47,1806.18 1448.47,1800.9L1448.47,1780.11L1433.66,1780.11C1428.6,1780.11 1428.04,1780.69 1428.04,1785.97L1428.04,1806.77Z" style="fill-rule:nonzero;"/>
    </g>
</svg>
